# xmcd
#
# Track frame offsets: 
#        150
#        11524
#        33796
#        54396
#        91711
#        114171
#        133613
#        155099
#
# Disc length: 2432 seconds
#
# Revision: 0
# Processed by: cddbd v1.5.2PL0 Copyright (c) Steve Scherf et al.
# Submitted via: ExactAudioCopy v0.95b4
#
DISCID=53097e08
DTITLE=Aeroblus - Aeroblus
DYEAR=2005
DGENRE=Blues
TTITLE0=Roude Mode
TTITLE1=Dziwna mieszanka
TTITLE2=In Got My Mojo
TTITLE3=Wzd³u¿ wie¿y strazniczej
TTITLE4=£zy w niebie
TTITLE5=Blues "Rycz¹cych 40-tek"
TTITLE6=Mean old world
TTITLE7=¯yæ wiar¹
EXTD=
EXTT0=
EXTT1=
EXTT2=
EXTT3=
EXTT4=
EXTT5=
EXTT6=
EXTT7=
PLAYORDER=
